<svg xmlns="http://www.w3.org/2000/svg" viewBox="0 0 532.6944403549256 532.6944403549256" shape-rendering="geometricPrecision" preserveAspectRatio="xMinYMin meet">
  <g transform="translate(0 38.670746453824035)">
    <g transform="translate(266.3472201774628 227.67647372363876) rotate(-30) translate(-233.65044407846125 -128)">
      <path d="M 128 32 H 339.3008881569225 A 96 96 0 0 1 435.3008881569225 128 V 128 A 96 96 0 0 1 339.3008881569225 224 H 128 A 96 96 0 0 1 32 128 V 128 A 96 96 0 0 1 128 32 Z M 128 44 H 339.3008881569225 A 84 84 0 0 1 423.3008881569225 128 V 128 A 84 84 0 0 1 339.3008881569225 212 H 128 A 84 84 0 0 1 44 128 V 128 A 84 84 0 0 1 128 44 Z" fill="#333333" fill-rule="evenodd" clip-rule="evenodd" />
      <path d="M 128 56 H 339.3008881569225 A 72 72 0 0 1 411.3008881569225 128 V 128 A 72 72 0 0 1 339.3008881569225 200 H 128 A 72 72 0 0 1 56 128 V 128 A 72 72 0 0 1 128 56 Z M 128 68 H 339.3008881569225 A 60 60 0 0 1 399.3008881569225 128 V 128 A 60 60 0 0 1 339.3008881569225 188 H 128 A 60 60 0 0 1 68 128 V 128 A 60 60 0 0 1 128 68 Z" fill="#333333" fill-rule="evenodd" clip-rule="evenodd" />
      <path d="M 128 80 H 339.3008881569225 A 48 48 0 0 1 387.3008881569225 128 V 128 A 48 48 0 0 1 339.3008881569225 176 H 128 A 48 48 0 0 1 80 128 V 128 A 48 48 0 0 1 128 80 Z M 128 92 H 339.3008881569225 A 36 36 0 0 1 375.3008881569225 128 V 128 A 36 36 0 0 1 339.3008881569225 164 H 128 A 36 36 0 0 1 92 128 V 128 A 36 36 0 0 1 128 92 Z" fill="#333333" fill-rule="evenodd" clip-rule="evenodd" />
      <path d="M 128 104 H 339.3008881569225 A 24 24 0 0 1 363.3008881569225 128 V 128 A 24 24 0 0 1 339.3008881569225 152 H 128 A 24 24 0 0 1 104 128 V 128 A 24 24 0 0 1 128 104 Z M 128 116 H 339.3008881569225 A 12 12 0 0 1 351.3008881569225 128 V 128 A 12 12 0 0 1 339.3008881569225 140 H 128 A 12 12 0 0 1 116 128 V 128 A 12 12 0 0 1 128 116 Z" fill="#333333" fill-rule="evenodd" clip-rule="evenodd" />
      <g transform="translate(182.24488815713175 158) rotate(0)">
        <rect x="1" y="-6" width="65" height="12" fill="white" />
        <rect x="6" y="6" width="60" height="12" fill="#333333" />
        <circle cx="0" cy="0" r="18" fill="white" />
        <circle cx="0" cy="0" r="6" fill="#333333" />
      </g>
      <g transform="translate(107.65349593700878 105.95414387204067) rotate(228.4403317259405)">
        <rect x="1" y="-6" width="65" height="12" fill="white" />
        <rect x="6" y="6" width="60" height="12" fill="#333333" />
        <circle cx="0" cy="0" r="18" fill="white" />
        <circle cx="0" cy="0" r="6" fill="#333333" />
      </g>
      <g transform="translate(202.05599999979154 98) rotate(270)">
        <rect x="1" y="-6" width="65" height="12" fill="white" />
        <rect x="6" y="6" width="60" height="12" fill="#333333" />
        <circle cx="0" cy="0" r="18" fill="white" />
        <circle cx="0" cy="0" r="6" fill="#333333" />
      </g>
      <g transform="translate(285.0559999997919 98) rotate(270)">
        <rect x="1" y="-6" width="65" height="12" fill="white" />
        <rect x="6" y="6" width="60" height="12" fill="#333333" />
        <circle cx="0" cy="0" r="18" fill="white" />
        <circle cx="0" cy="0" r="6" fill="#333333" />
      </g>
      <g transform="translate(359.6473922199116 150.04585612796131) rotate(0)">
        <rect x="1" y="-6" width="65" height="12" fill="white" />
        <rect x="6" y="6" width="60" height="12" fill="#333333" />
        <circle cx="0" cy="0" r="18" fill="white" />
        <circle cx="0" cy="0" r="6" fill="#333333" />
      </g>
      <g transform="translate(265.24488815713164 158) rotate(0)">
        <rect x="1" y="-6" width="65" height="12" fill="white" />
        <rect x="6" y="6" width="60" height="12" fill="#333333" />
        <circle cx="0" cy="0" r="18" fill="white" />
        <circle cx="0" cy="0" r="6" fill="#333333" />
      </g>
    </g>
    <g pointer-events="none">
      <path d="M 20 197.36325699956328 C 32.28375056146939 205.59590564435084 44.56750112293878 206.01833086921832 56.85125168440817 197.79783827156376" fill="none" stroke="#38afcd" stroke-width="24" stroke-linecap="round" stroke-linejoin="round" />
      <path d="M 20 144.53803496033265 C 32.5 152.91561536990542 45 152.91561536990542 57.5 144.53803496033265 C 70 136.16045455075988 82.5 136.16045455075988 95 144.53803496033265 C 107.5 152.91561536990542 120 152.91561536990542 132.5 144.53803496033265 C 137.78240672582095 140.997731992202 143.06481345164187 137.62590267084744 148.34722017746282 136.77342282391785" fill="none" stroke="#38afcd" stroke-width="24" stroke-linecap="round" stroke-linejoin="round" />
      <path d="M 20 91.71281292110203 C 32.5 100.09039333067481 45 100.09039333067481 57.5 91.71281292110203 C 70 83.33523251152924 82.5 83.33523251152923 95 91.71281292110201 C 107.5 100.0903933306748 120 100.09039333067481 132.5 91.71281292110203 C 145 83.33523251152924 157.5 83.33523251152923 170 91.71281292110201 C 182.5 100.0903933306748 195 100.09039333067483 207.5 91.71281292110204 C 218.28106289017248 84.48727522005555 229.06212578034499 81.80151289695111 239.84318867051746 88.36319337502299" fill="none" stroke="#38afcd" stroke-width="24" stroke-linecap="round" stroke-linejoin="round" />
      <path d="M 512.6944403549256 363.64013452617553 C 500.19444035492563 355.26255411660276 487.69444035492563 355.26255411660276 475.19444035492563 363.64013452617553 C 462.69444035492563 372.0177149357483 450.19444035492563 372.0177149357483 437.69444035492563 363.64013452617553 C 425.19444035492563 355.26255411660276 412.69444035492563 355.26255411660276 400.19444035492563 363.64013452617553 C 387.69444035492563 372.0177149357483 375.19444035492563 372.0177149357483 362.69444035492563 363.64013452617553 C 350.19444035492563 355.26255411660276 337.69444035492563 355.26255411660276 325.19444035492563 363.64013452617553 C 314.4133774647531 370.86567222722203 303.6323145745806 373.55143455032646 292.8512516844081 366.9897540722545" fill="none" stroke="#38afcd" stroke-width="24" stroke-linecap="round" stroke-linejoin="round" />
      <path d="M 512.6944403549256 310.8149124869449 C 500.19444035492563 302.4373320773721 487.69444035492563 302.4373320773721 475.19444035492563 310.8149124869449 C 462.69444035492563 319.19249289651765 450.19444035492563 319.19249289651765 437.69444035492563 310.8149124869449 C 425.19444035492563 302.4373320773721 412.69444035492563 302.4373320773721 400.19444035492563 310.8149124869449 C 394.9120336291047 314.3552154550755 389.62962690328374 317.72704477643015 384.3472201774628 318.5795246233597" fill="none" stroke="#38afcd" stroke-width="24" stroke-linecap="round" stroke-linejoin="round" />
      <path d="M 512.6944403549256 257.9896904477143 C 500.41068979345624 249.75704180292672 488.12693923198685 249.33461657805927 475.84318867051746 257.5551091757138" fill="none" stroke="#38afcd" stroke-width="24" stroke-linecap="round" stroke-linejoin="round" />
    </g>
  </g>
</svg>
